{"title":"The Last Fight DVD","uid":7013538,"size":982867393,"categoryP":"porn","categoryS":"movies","magnet":"?xt=urn:btih:18ae17c3205c9155586a51fc54a19754868a1a69&amp;dn=The+Last+Fight+DVD&amp;tr=udp%3A%2F%2Ftracker.openbittorrent.com%3A80&amp;tr=udp%3A%2F%2Fopen.demonii.com%3A1337&amp;tr=udp%3A%2F%2Ftracker.coppersurfer.tk%3A6969&amp;tr=udp%3A%2F%2Fexodus.desync.com%3A6969","seeders":0,"leechers":2,"uploader":"tigris1968","files":89,"time":1328566557,"description":"The Last Fight DVD\n\nInxcess Productions XC\n\nCategory Feature, Foreign, Plot Based, Couples \n\nDirector Joe D'Amato \n\nStarring Roxanne Hall, Rocco Siffredi, Mercedez, Vince Vouyer,\n \nSindee Coxx, Dave Hardman, Holly Body, Lana Sands, \n\nRosa Caracciolo, Hakan Serbes, Barbie Angel.\n\nStudio Inxcess Productions XC \n\nDiscs 1 \n\nRelease Date  12 November 2002\n\n  &lt;a href=&quot;\nhttp://bayimg.com/bAMEOAAdh&quot; rel=&quot;nofollow&quot; target=&quot;_NEW&quot;&gt;\nhttp://bayimg.com/bAMEOAAdh&lt;/a&gt;\n &lt;a href=&quot;\nhttp://bayimg.com/cAMecaaDH&quot; rel=&quot;nofollow&quot; target=&quot;_NEW&quot;&gt;\nhttp://bayimg.com/cAMecaaDH&lt;/a&gt; \n\n\nSCREEN\n &lt;a href=&quot;\nhttp://bayimg.com/CameHaAdh&quot; rel=&quot;nofollow&quot; target=&quot;_NEW&quot;&gt;\nhttp://bayimg.com/CameHaAdh&lt;/a&gt; \n\nGeneral\nComplete name                    : C:\\Downloads\\The Last Fight DVD\\dvd\\The Last Fight DVD.avi\nFormat                           : AVI\nFormat/Info                      : Audio Video Interleave\nFile size                        : 926 MiB\nDuration                         : 1h 36mn\nOverall bit rate                 : 1 335 Kbps\nWriting application              : MEncoder SVN-r30881(20100311-gcc4.3.3)\nWriting library                  : MPlayer\n\nVideo\nID                               : 0\nFormat                           : MPEG-4 Visual\nFormat profile                   : Advanced Simple@L5\nFormat settings, BVOP            : 2\nFormat settings, QPel            : No\nFormat settings, GMC             : No warppoints\nFormat settings, Matrix          : Default (H.263)\nCodec ID                         : XVID\nCodec ID/Hint                    : XviD\nDuration                         : 1h 36mn\nBit rate                         : 1 195 Kbps\nWidth                            : 720 pixels\nHeight                           : 480 pixels\nDisplay aspect ratio             : 3:2\nFrame rate                       : 25.000 fps\nStandard                         : NTSC\nColor space                      : YUV\nChroma subsampling               : 4:2:0\nBit depth                        : 8 bits\nScan type                        : Progressive\nCompression mode                 : Lossy\nBits/(Pixel*Frame)               : 0.138\nStream size                      : 828 MiB (89%)\nWriting library                  : XviD 1.2.1 (UTC 2008-12-04)\n\nAudio\nID                               : 1\nFormat                           : MPEG Audio\nFormat version                   : Version 1\nFormat profile                   : Layer 3\nMode                             : Joint stereo\nMode extension                   : MS Stereo\nCodec ID                         : 55\nCodec ID/Hint                    : MP3\nDuration                         : 1h 36mn\nBit rate mode                    : Constant\nBit rate                         : 128 Kbps\nChannel(s)                       : 2 channels\nSampling rate                    : 44.1 KHz\nCompression mode                 : Lossy\nDelay relative to video          : 40ms\nStream size                      : 88.7 MiB (10%)\nAlignment                        : Aligned on interleaves\nInterleave, duration             : 26 ms (0.65 video frame)\nInterleave, preload duration     : 522 ms\nWriting library                  : LAME3.98\n\n\n","torrent":{"xt":"urn:btih:18ae17c3205c9155586a51fc54a19754868a1a69","amp;dn":"The+Last+Fight+DVD","amp;tr":["udp%3A%2F%2Ftracker.openbittorrent.com%3A80","udp%3A%2F%2Fopen.demonii.com%3A1337","udp%3A%2F%2Ftracker.coppersurfer.tk%3A6969","udp%3A%2F%2Fexodus.desync.com%3A6969"],"infoHash":"18ae17c3205c9155586a51fc54a19754868a1a69","infoHashBuffer":{"type":"Buffer","data":[24,174,23,195,32,92,145,85,88,106,81,252,84,161,151,84,134,138,26,105]},"announce":[],"urlList":[]}}